# xmcd CD database file
#
# Track frame offsets:
#	150
#	21319
#	38938
#	55087
#	63171
#	81355
#	100158
#	122574
#	144244
#	166089
#	187427
#
# Disc length: 2748 seconds
#
# Revision: 0
# Processed by: cddbd v1.5.1PL0 Copyright (c) Steve Scherf et al.
# Submitted via: CDex 1.51
#
DISCID=920aba0b
DTITLE=SKINLESS - From Sacrifice To Survival
DYEAR=1900
DGENRE=Death Metal
TTITLE0=The Front Line Of Sanity
TTITLE1=Escalate Discord
TTITLE2=Deathwork
TTITLE3=A False Sense Of Security
TTITLE4=From Sacrifice To Survival
TTITLE5=Battle Perpetual Will
TTITLE6=Miscreant
TTITLE7=Dead Consicience
TTITLE8=Don't Risk Infection
TTITLE9=Miscreant(Live)
TTITLE10=Don't Risk Infection(Live)
EXTD=
EXTT0=
EXTT1=
EXTT2=
EXTT3=
EXTT4=
EXTT5=
EXTT6=
EXTT7=
EXTT8=
EXTT9=
EXTT10=
PLAYORDER=
